<?xml version="1.0" encoding="utf-8"?>
<!-- Generator: Adobe Illustrator 21.1.0, SVG Export Plug-In . SVG Version: 6.00 Build 0)  -->
<svg version="1.1" id="Layer_1" xmlns="http://www.w3.org/2000/svg" xmlns:xlink="http://www.w3.org/1999/xlink" x="0px" y="0px"
	 viewBox="0 0 50 50" style="enable-background:new 0 0 50 50;" xml:space="preserve">
<style type="text/css">
	.st0{fill:#FFFFFF;}
	.st1{fill:none;stroke:#ABABAB;}
</style>
<g>
	<path class="st0" d="M18,30.4c1.8,0,3.1,1.3,3.1,3.1v13.4c0,1.8-1.3,3.1-3.1,3.1c-1.8,0-3.1-1.3-3.1-3.1V33.5
		C14.9,31.7,16.2,30.4,18,30.4L18,30.4z"/>
	<path class="st0" d="M10.9,14.3v20.7c0,2.2,1.8,4,3.8,4h20.6c2.2,0,3.8-1.8,3.8-4V14.6v-0.3C39.2,14.3,10.9,14.3,10.9,14.3z"/>
	<path class="st1" d="M12.1,0.2L15.4,6 M38,0.2L34.8,6"/>
	<path class="st0" d="M32,30.4c-1.8,0-3.1,1.3-3.1,3.1v13.4c0,1.8,1.3,3.1,3.1,3.1c1.8,0,3.1-1.3,3.1-3.1V33.5
		C35.2,31.7,33.8,30.4,32,30.4L32,30.4z M5.8,16c-1.8,0-3.1,1.3-3.1,3.1v13.4c0,1.8,1.3,3.1,3.1,3.1c1.8,0,3.1-1.3,3.1-3.1V19.1
		C9,17.4,7.6,16,5.8,16z M44.2,16c-1.8,0-3.1,1.3-3.1,3.1v13.4c0,1.8,1.3,3.1,3.1,3.1s3.1-1.3,3.1-3.1V19.1C47.3,17.4,46,16,44.2,16
		z M26.5,0.8h-3.1c-6.9,0.7-12.4,5.8-12.5,12h28.1C38.9,6.6,33.6,1.6,26.5,0.8z M20.8,7.3c0,0.9-0.7,1.6-1.6,1.6
		c-0.9,0-1.6-0.7-1.6-1.6c0-0.9,0.7-1.6,1.6-1.6C20.1,5.7,20.8,6.4,20.8,7.3z M32.9,7.3c0,0.9-0.7,1.6-1.6,1.6
		c-0.9,0-1.6-0.7-1.6-1.6c0-0.9,0.7-1.6,1.6-1.6S32.9,6.4,32.9,7.3L32.9,7.3z"/>
</g>
</svg>
