<?xml version="1.0" encoding="utf-8"?>
<!-- Generator: Adobe Illustrator 21.1.0, SVG Export Plug-In . SVG Version: 6.00 Build 0)  -->
<svg version="1.1" id="Layer_1" xmlns="http://www.w3.org/2000/svg" xmlns:xlink="http://www.w3.org/1999/xlink" x="0px" y="0px"
	 viewBox="0 0 50 50" style="enable-background:new 0 0 50 50;" xml:space="preserve">
<style type="text/css">
	.st0{fill:#FFFFFF;}
</style>
<g id="XMLID_1_">
	<path id="XMLID_5_" class="st0" d="M45.2,39c-0.8,1.7-1.7,3.4-2.7,4.8c-1.4,2-2.6,3.4-3.5,4.2c-1.4,1.3-2.9,1.9-4.5,2
		c-1.1,0-2.5-0.3-4.1-1c-1.6-0.7-3.1-1-4.4-1c-1.4,0-2.9,0.3-4.6,1c-1.6,0.7-2.9,1-3.9,1c-1.5,0.1-3-0.6-4.6-2
		c-1-0.8-2.2-2.3-3.6-4.3c-1.6-2.2-2.8-4.7-3.8-7.6c-1.1-3.1-1.6-6.1-1.6-9.1c0-3.4,0.7-6.2,2.2-8.7c1.1-1.9,2.7-3.5,4.6-4.6
		s3.9-1.7,6.2-1.7c1.2,0,2.8,0.4,4.8,1.1c2,0.7,3.2,1.1,3.8,1.1c0.4,0,1.8-0.4,4.2-1.3c2.2-0.8,4.1-1.1,5.7-1c4.2,0.3,7.4,2,9.5,5
		c-3.8,2.3-5.6,5.5-5.6,9.6c0,3.2,1.2,5.8,3.5,8c1,1,2.2,1.7,3.5,2.3C45.8,37.5,45.5,38.2,45.2,39L45.2,39z M35.5,1
		c0,2.5-0.9,4.8-2.7,7c-2.2,2.6-4.9,4.1-7.7,3.8c0-0.3-0.1-0.6-0.1-0.9c0-2.4,1-5,2.9-7.1c0.9-1.1,2.1-1.9,3.5-2.7
		c1.4-0.7,2.8-1.1,4-1.1C35.5,0.3,35.5,0.7,35.5,1L35.5,1z"/>
</g>
</svg>
