<?xml version="1.0" encoding="utf-8"?>
<!-- Generator: Adobe Illustrator 21.1.0, SVG Export Plug-In . SVG Version: 6.00 Build 0)  -->
<svg version="1.1" id="Layer_1" xmlns="http://www.w3.org/2000/svg" xmlns:xlink="http://www.w3.org/1999/xlink" x="0px" y="0px"
	 viewBox="0 0 50 50" style="enable-background:new 0 0 50 50;" xml:space="preserve">
<style type="text/css">
	.st0{fill:#FFFFFF;}
</style>
<g>
	<path class="st0" d="M25.7,13.7c-0.1,0.3-0.1,0.5-0.2,0.8c-0.8,3.3-1.6,6.6-2.4,9.9c0,0.2-0.1,0.3-0.2,0.5
		c-0.1,0.2-0.3,0.3-0.6,0.4c-0.4,0-0.7,0-1.1,0c-0.3,0-0.5,0-0.8,0c-0.3,0-0.5-0.2-0.6-0.4c-0.2-0.3-0.2-0.7-0.3-1
		c-1.2-4.1-2.5-8.1-3.7-12.2c-0.1-0.2-0.1-0.4-0.2-0.6c0-0.3,0.1-0.5,0.4-0.5c0.6,0,1.2,0,1.9,0c0.3,0,0.5,0.2,0.6,0.4
		c0.2,0.4,0.2,0.7,0.3,1.1c0.9,3.4,1.7,6.8,2.6,10.2c0,0,0,0,0,0c0.1-0.1,0.1-0.2,0.1-0.3c0.8-3.6,1.7-7.1,2.5-10.7
		c0-0.1,0.1-0.2,0.1-0.3c0.1-0.3,0.3-0.5,0.7-0.5c0.2,0,0.4,0,0.6,0c0.4,0,0.8,0,1.2,0c0.3,0,0.5,0.2,0.6,0.5c0.1,0.3,0.2,0.6,0.3,1
		c0.8,3.4,1.6,6.8,2.4,10.1c0,0.1,0,0.2,0.1,0.3c0,0,0-0.1,0-0.1c0.9-3.4,1.7-6.7,2.6-10.1c0.1-0.3,0.2-0.6,0.2-0.9
		c0-0.1,0.1-0.2,0.1-0.2c0.1-0.4,0.4-0.6,0.8-0.6c0.5,0,1.1,0,1.6,0c0.3,0,0.4,0.2,0.4,0.4c0,0.2,0,0.4-0.1,0.5
		c-1.3,4.3-2.7,8.6-4,12.9c0,0.1-0.1,0.2-0.1,0.4c-0.1,0.3-0.4,0.5-0.7,0.5c-0.6,0-1.2,0-1.8,0c-0.3,0-0.5-0.2-0.7-0.5
		c-0.1-0.3-0.2-0.7-0.3-1c-0.8-3.2-1.6-6.5-2.3-9.7C25.7,13.9,25.7,13.8,25.7,13.7z"/>
	<path class="st0" d="M24.6,39.9c-1.2,0-2.3-0.1-3.5-0.2c-4-0.4-7.9-1.4-11.6-3.1c-2.7-1.2-5.2-2.8-7.6-4.6
		c-0.6-0.5-1.2-0.9-1.7-1.4C0.1,30.4,0,30.3,0,30.1c-0.1-0.3,0.2-0.5,0.6-0.5c0.1,0,0.2,0.1,0.3,0.1c1.5,0.9,3.1,1.7,4.7,2.4
		c2.3,1,4.6,1.8,7,2.4c1.1,0.3,2.1,0.5,3.2,0.7c1.2,0.2,2.4,0.4,3.6,0.6c1.4,0.2,2.9,0.3,4.4,0.4c1.5,0.1,2.9,0,4.4,0
		c1.6-0.1,3.1-0.3,4.6-0.5c3.6-0.6,7.1-1.5,10.5-2.8c0.4-0.2,0.8-0.3,1.2-0.5c0.3-0.1,0.5-0.1,0.8,0c0.4,0.2,0.5,0.6,0.3,1
		c-0.1,0.1-0.2,0.2-0.3,0.3c-1.8,1.3-3.7,2.3-5.7,3.2c-2.2,1-4.5,1.7-6.9,2.2c-1.1,0.2-2.1,0.4-3.2,0.5c-0.9,0.1-1.9,0.2-2.8,0.2
		C25.9,39.9,25.3,39.9,24.6,39.9z"/>
	<path class="st0" d="M11.5,23.3c-0.2,0.2-0.4,0.4-0.6,0.6c-1.3,1.2-2.9,1.8-4.7,1.7c-0.8,0-1.5-0.2-2.2-0.6c-1-0.6-1.6-1.5-1.9-2.7
		C2,21.5,2,20.6,2.3,19.7c0.3-1,1-1.8,1.9-2.4c0.7-0.4,1.5-0.7,2.4-0.8c1.2-0.1,2.4,0,3.6,0.2c0.4,0.1,0.8,0.2,1.2,0.2
		c0,0,0,0,0-0.1c0-0.6,0-1.2,0-1.8c0-0.4-0.1-0.7-0.2-1.1c-0.3-0.8-0.8-1.3-1.6-1.5c-0.7-0.2-1.4-0.2-2.2-0.2
		c-1.1,0.1-2.1,0.4-3.2,0.8c-0.2,0.1-0.4,0.2-0.6,0.2c-0.3,0.1-0.4,0-0.5-0.3c0-0.4,0-0.9,0-1.3c0-0.3,0.2-0.4,0.4-0.5
		c0.4-0.2,0.7-0.4,1.1-0.5C6,10.2,7.5,10,9,10.1c0.9,0,1.7,0.2,2.5,0.5c1.2,0.5,1.9,1.4,2.3,2.5c0.2,0.7,0.3,1.4,0.3,2.1
		c0,1.8,0,3.6,0,5.4c0,1,0.2,2,0.7,2.9c0.2,0.4,0.2,0.6-0.2,0.9c-0.4,0.2-0.7,0.5-1.1,0.7c-0.3,0.2-0.7,0.2-0.9-0.1
		c-0.4-0.4-0.7-1-1-1.5C11.6,23.5,11.6,23.4,11.5,23.3z M8.5,18.5c-0.6,0-1.2,0-1.8,0.2c-0.7,0.2-1.2,0.6-1.5,1.3
		c-0.3,0.6-0.3,1.2-0.2,1.8c0.2,0.9,0.7,1.4,1.5,1.6c0.5,0.1,1,0.1,1.6,0c0.7-0.1,1.3-0.3,1.9-0.7c0.6-0.4,1-1,1.2-1.7
		c0.2-0.7,0.2-1.3,0.2-2c0-0.1,0-0.1-0.1-0.1C10.4,18.6,9.4,18.5,8.5,18.5z"/>
	<path class="st0" d="M42.6,10.1c1.2,0,2.4,0.2,3.5,0.6c0.2,0.1,0.4,0.2,0.6,0.4c0.2,0.2,0.3,0.4,0.3,0.7c0,0.3,0,0.6,0,0.9
		c0,0.4-0.2,0.5-0.6,0.4c-0.3-0.1-0.5-0.2-0.7-0.3c-1.1-0.4-2.2-0.6-3.4-0.5c-0.5,0-1,0.1-1.4,0.3c-1,0.4-1.4,1.5-0.9,2.4
		c0.2,0.4,0.5,0.6,0.9,0.8c0.5,0.3,1.1,0.5,1.7,0.7c0.9,0.3,1.7,0.5,2.6,0.8c0.7,0.3,1.3,0.6,1.8,1.2c0.7,0.7,1,1.6,0.9,2.6
		c0,1.9-1,3.2-2.6,4c-0.8,0.4-1.6,0.6-2.5,0.6c-1.7,0.1-3.2-0.1-4.8-0.7c-0.2-0.1-0.5-0.2-0.7-0.4c-0.2-0.2-0.3-0.4-0.3-0.7
		c0-0.3,0-0.7,0-1c0-0.4,0.2-0.5,0.6-0.4c0.2,0.1,0.4,0.1,0.6,0.2c1.3,0.6,2.7,0.8,4.1,0.7c0.6,0,1.2-0.1,1.8-0.4
		c0.6-0.3,0.9-0.7,1.1-1.3c0.2-0.8-0.1-1.5-0.8-1.9c-0.5-0.3-1-0.5-1.5-0.6c-0.9-0.3-1.8-0.5-2.6-0.8c-0.8-0.3-1.5-0.7-2-1.3
		c-1-1.3-1.3-2.7-0.7-4.2c0.4-0.9,1.1-1.6,2-2c0.8-0.4,1.7-0.7,2.6-0.7C42.2,10.1,42.4,10.1,42.6,10.1z"/>
	<path class="st0" d="M45,30.6c-1.2,0-2.3,0.1-3.4,0.3c-0.2,0-0.4,0-0.6,0.1c-0.1,0-0.3,0-0.3-0.2c-0.1-0.1,0-0.3,0.1-0.4
		c0.1-0.1,0.2-0.2,0.3-0.3c0.9-0.6,1.8-1,2.8-1.2c1.2-0.3,2.4-0.3,3.6-0.3c0.6,0,1.2,0.1,1.8,0.3c0.6,0.2,0.8,0.4,0.8,1.1
		c0,0.7-0.1,1.3-0.2,2c-0.3,1.4-0.8,2.7-1.6,4c-0.4,0.6-0.9,1.2-1.4,1.7c-0.1,0.1-0.3,0.2-0.5,0.2c-0.2,0-0.4-0.1-0.3-0.3
		c0-0.1,0-0.2,0.1-0.3c0.4-1.1,0.9-2.2,1.2-3.3c0.2-0.7,0.4-1.3,0.4-2c0-0.2,0-0.4,0-0.5c0-0.3-0.2-0.5-0.5-0.6
		c-0.3-0.2-0.7-0.2-1.1-0.3C45.7,30.6,45.4,30.6,45,30.6z"/>
</g>
</svg>
