<?xml version="1.0" encoding="utf-8"?>
<!-- Generator: Adobe Illustrator 21.1.0, SVG Export Plug-In . SVG Version: 6.00 Build 0)  -->
<svg version="1.1" id="Layer_1" xmlns="http://www.w3.org/2000/svg" xmlns:xlink="http://www.w3.org/1999/xlink" x="0px" y="0px"
	 viewBox="0 0 50 50" style="enable-background:new 0 0 50 50;" xml:space="preserve">
<style type="text/css">
	.st0{fill:#FFFFFF;}
	.st1{fill:#0189D5;}
</style>
<g>
	<path class="st0" d="M11.6,44.4c0.8-0.2,1.7-0.3,2.5-0.5c2.9-0.5,5.9-1,8.9-1.6c3.2-0.6,6.5-1.1,9.7-1.7c0.8-0.1,1.5-0.3,2.3-0.4
		c-0.3-0.4-0.6-0.7-0.9-1.1c-3.7-4.4-7.4-8.8-11-13.2c-0.1-0.1-0.2-0.3-0.1-0.5c2.1-5.6,4.1-11.3,6.2-16.9c0,0,0-0.1,0.1-0.1
		c0.1,0.1,0.2,0.2,0.2,0.3c4.5,7.7,8.9,15.4,13.4,23.1c2.3,4.1,4.7,8.1,7,12.2c0.1,0.1,0.2,0.2,0.2,0.4
		C37.2,44.4,24.4,44.4,11.6,44.4z"/>
	<path class="st0" d="M27.4,5.7c-0.6,1.2-1.1,2.4-1.7,3.6c-4.7,10.1-9.4,20.3-14.2,30.4c-0.1,0.3-0.3,0.4-0.7,0.4
		c-3.5,0-6.9,0-10.4,0c-0.2,0-0.4,0-0.6,0c0-0.1,0.1-0.2,0.1-0.3c4.1-7.2,8.2-14.3,12.4-21.5c0.1-0.2,0.2-0.3,0.4-0.5
		c4.8-4,9.5-8,14.3-12C27.2,5.8,27.3,5.7,27.4,5.7C27.4,5.7,27.4,5.7,27.4,5.7z"/>
</g>
<path class="st1" d="M80.9-261.1c0.1-0.4,0.3-0.9,0.8-0.5c0.1,0.1-0.1,0.7-0.2,1.1C81.3-260.7,81.1-260.9,80.9-261.1z"/>
</svg>
