<svg xmlns="http://www.w3.org/2000/svg" viewBox="0 0 50 50"><defs><style>.cls-1{fill:#00b7ff;opacity:0;}.cls-2{fill:none;}.cls-3{fill:#fff;}</style></defs><title>csharp</title><g id="Layer_2" data-name="Layer 2"><g id="Layer_1-2" data-name="Layer 1"><rect class="cls-1" width="50" height="50"/><path class="cls-2" d="M25,32.36a7.36,7.36,0,1,1,6.36-11l6.43-3.7a14.77,14.77,0,1,0,0,14.72l-6.42-3.72A7.35,7.35,0,0,1,25,32.36Z"/><rect class="cls-3" x="39.54" y="24.11" width="1.78" height="1.78"/><path class="cls-3" d="M47.24,14.7a4.41,4.41,0,0,0-.54-2.22,4.25,4.25,0,0,0-1.61-1.57L27.32.67a4.36,4.36,0,0,0-4.73,0C20.23,2.11,8.43,8.87,4.91,10.91A4.11,4.11,0,0,0,2.76,14.7q0,10.3,0,20.6a4.43,4.43,0,0,0,.52,2.18,4.23,4.23,0,0,0,1.63,1.61c3.52,2,15.32,8.8,17.68,10.19a4.36,4.36,0,0,0,4.73,0L45.09,39.09a4.23,4.23,0,0,0,1.63-1.61,4.44,4.44,0,0,0,.52-2.18S47.24,21.57,47.24,14.7ZM25,39.77A14.77,14.77,0,1,1,37.79,17.61l-6.43,3.7a7.36,7.36,0,1,0,0,7.3l6.42,3.72A14.77,14.77,0,0,1,25,39.77ZM44,24.11H42.78v1.78H44v1.46H42.78v1.19H41.32V27.35H39.54v1.19H38.07V27.35H36.89V25.89h1.19V24.11H36.89V22.65h1.19V21.46h1.46v1.19h1.78V21.46h1.46v1.19H44Z"/></g></g></svg>