<svg xmlns="http://www.w3.org/2000/svg" viewBox="0 0 50 50"><defs><style>.cls-1{fill:#00b7ff;opacity:0;}.cls-2{fill:#fff;}</style></defs><title>css3</title><g id="Layer_2" data-name="Layer 2"><g id="Layer_1-2" data-name="Layer 1"><rect class="cls-1" width="50" height="50"/><path class="cls-2" d="M25.62,17.18H14.48L15,21.51H26.28l-.66.28L15.44,26.12l.28,4.33H30.84l-.28,5.73-4.95,1.4-4.81-1.26-.28-3.49h-4.4l.55,6.84,8.94,2.65,8.94-2.65,1.1-13.55h-10l10.45-4.61.41-4.33H25.62ZM39.37,46.09,25.07,50l-14.3-3.91L7.47,9.92H42.53ZM17.51,4.61V2.51h3.16V.14H15.3v6.7h5.36V4.75H17.51Zm8.66-2.24h2.2V0H23V2.37c.69.7,1.1,1.12,2.2,2.1H23v2.1h5.36V4.47l-2.2-2.1Zm7.7,0h2.2V0H30.71V2.37c.69.7,1.1,1.12,2.2,2.1h-2.2v2.1h5.36V4.47l-2.2-2.1Z"/></g></g></svg>