<svg xmlns="http://www.w3.org/2000/svg" viewBox="0 0 50 50"><defs><style>.cls-1{fill:#00b7ff;opacity:0;}.cls-2{fill:#fff;}</style></defs><title>electron_1</title><g id="Layer_2" data-name="Layer 2"><g id="Layer_1-2" data-name="Layer 1"><rect class="cls-1" width="50" height="50"/><path class="cls-2" d="M2,38.08a3.13,3.13,0,0,1,1.1-2.38,1.42,1.42,0,0,0,.52-.85,13.88,13.88,0,0,1,3-8.15,37.47,37.47,0,0,1,11.9-10.63,41.83,41.83,0,0,1,12.06-5c.42-.1.88-.26,1,.32s-.37.63-.78.74A42.81,42.81,0,0,0,10.64,23.46a21.37,21.37,0,0,0-5.31,7.77,20.06,20.06,0,0,0-.68,2.87c-.12.58.07.9.75,1a3,3,0,0,1,2.68,3.42,3.14,3.14,0,0,1-3.22,2.7A3.13,3.13,0,0,1,2,38.08Zm3,2A2,2,0,0,0,7,38.13a2.07,2.07,0,0,0-2-2A2.07,2.07,0,0,0,3,38,2,2,0,0,0,5,40Z"/><path class="cls-2" d="M37.24,26.36A44.82,44.82,0,0,1,35.5,38.22,1.38,1.38,0,0,1,35,39c-.4.22-.72-.24-.6-.81.43-2.06,1-4.11,1.27-6.19a39.83,39.83,0,0,0,.17-10.09,37.79,37.79,0,0,0-2.08-9.36,17.23,17.23,0,0,0-4.42-7.05c-.2-.18-.43-.34-.63-.53-.52-.47-.9-.5-1.39.14A2.9,2.9,0,0,1,23.9,6a3.15,3.15,0,0,1-2-2.72,3.07,3.07,0,0,1,1.89-3,3.11,3.11,0,0,1,4.25,2.38,1.36,1.36,0,0,0,.44.89,15,15,0,0,1,5.64,7.13A33,33,0,0,1,36.81,21C37,22.75,37.1,24.56,37.24,26.36ZM25,5a1.94,1.94,0,0,0,2-2,2.06,2.06,0,0,0-2-2,2,2,0,0,0-2,2A1.92,1.92,0,0,0,25,5Z"/><path class="cls-2" d="M45,35a3,3,0,0,1,2.84,1.87,3.08,3.08,0,0,1-.68,3.35,2.89,2.89,0,0,1-3.33.67,1.93,1.93,0,0,0-1.55,0,19.09,19.09,0,0,1-4.2,1c-6.29.47-12-1.52-17.49-4.37A41.64,41.64,0,0,1,9.37,29.3l-.06-.06c-.25-.33-.8-.62-.34-1.09s.77,0,1.08.33c1.26,1.15,2.44,2.39,3.77,3.44a41.21,41.21,0,0,0,19.4,8.87,15.52,15.52,0,0,0,8.12-.59c.66-.25.93-.48.66-1.3A3,3,0,0,1,45,35Zm0,5a2,2,0,0,0,2-1.94,2,2,0,0,0-4,0A2,2,0,0,0,44.95,40Z"/><path class="cls-2" d="M4.62,18.22A12.14,12.14,0,0,0,6,22.94a2.32,2.32,0,0,1,.35.74,2.32,2.32,0,0,1-.22.78c-.23-.1-.58-.13-.68-.3C4.12,21.81,3.2,19.3,3.68,16.54c.53-3,2.61-4.73,5.45-5.57a18.06,18.06,0,0,1,8.71-.18c.27.05.47.39.71.6-.29.14-.58.41-.86.4-1.72-.07-3.45-.29-5.17-.28a9.85,9.85,0,0,0-5,1.29A5.84,5.84,0,0,0,4.62,18.22Z"/><path class="cls-2" d="M25,50a8,8,0,0,1-5.89-2.93,19.52,19.52,0,0,1-4-7c-.08-.22.13-.55.21-.83.25.14.63.22.74.44.56,1.13.95,2.35,1.6,3.42a19.93,19.93,0,0,0,2.64,3.56c2.91,3,6.57,2.93,9.47-.11.72-.75,1.27-1.65,2-2.44.21-.24.68-.5.9-.41.52.21.22.64,0,1-1.54,2.38-3.35,4.44-6.27,5.13A12.9,12.9,0,0,1,25,50Z"/><path class="cls-2" d="M46.46,17.65c-.05,3.53-1.53,6.17-3.3,8.7A9.54,9.54,0,0,1,42,27.77a1.12,1.12,0,0,1-.91.29,1.29,1.29,0,0,1,.09-.94c1-1.66,2.19-3.23,3.11-4.94a8.3,8.3,0,0,0,1-5.42,5.49,5.49,0,0,0-3.88-4.42,30.73,30.73,0,0,0-4.17-.86c-.21,0-.47,0-.65-.06a.84.84,0,0,1-.39-.54c0-.12.24-.37.41-.42,3.47-1,8.73,2.05,9.62,5.55A12.48,12.48,0,0,1,46.46,17.65Z"/><path class="cls-2" d="M25,24.12a2.16,2.16,0,0,1,2.22,2.16A2.3,2.3,0,0,1,25,28.48a2.26,2.26,0,0,1-2.17-2.17A2.15,2.15,0,0,1,25,24.12Z"/></g></g></svg>