<?xml version="1.0" encoding="utf-8"?>
<!-- Generator: Adobe Illustrator 21.1.0, SVG Export Plug-In . SVG Version: 6.00 Build 0)  -->
<svg version="1.1" id="Layer_1" xmlns="http://www.w3.org/2000/svg" xmlns:xlink="http://www.w3.org/1999/xlink" x="0px" y="0px"
	 viewBox="0 0 50 50" style="enable-background:new 0 0 50 50;" xml:space="preserve">
<style type="text/css">
	.st0{display:none;}
	.st1{display:inline;}
	.st2{clip-path:url(#SVGID_2_);}
	.st3{fill:#FFA000;}
	.st4{opacity:0.12;fill:url(#SVGID_3_);enable-background:new    ;}
	.st5{fill:#F57C00;}
	.st6{opacity:0.2;fill:url(#SVGID_4_);enable-background:new    ;}
	.st7{fill:#FFCA28;}
	.st8{fill:#FFFFFF;fill-opacity:0.2;}
	.st9{opacity:0.2;fill:#A52714;enable-background:new    ;}
	.st10{fill:url(#SVGID_5_);}
	.st11{clip-path:url(#SVGID_7_);}
	.st12{fill:#E5E5E5;}
	.st13{display:none;opacity:0.12;fill:url(#SVGID_8_);enable-background:new    ;}
	.st14{fill:#C6C6C6;}
	.st15{display:none;opacity:0.2;fill:url(#SVGID_9_);enable-background:new    ;}
	.st16{fill:#FFFFFF;}
	.st17{fill:url(#SVGID_10_);}
	.st18{fill:url(#SVGID_11_);}
</style>
<g class="st0">
	<g class="st1">
		<defs>
			<path id="SVGID_1_" d="M178.1-430.3c-0.4-2.2-2.4-3.6-4.6-3.3c-0.8,0.1-1.6,0.5-2.2,1.1l-20.8,20.8l-16.3-31.1
				c-1-2-3.4-2.7-5.4-1.7c-0.7,0.4-1.3,1-1.7,1.7l-8.9,17l-22.4-41.8c-1-1.9-3.5-2.7-5.4-1.6c-1.1,0.6-1.9,1.7-2.1,2.9L66.6-327.7
				l57.9,32.5c3.6,2,8.1,2,11.7,0l58.4-32.5L178.1-430.3z"/>
		</defs>
		<clipPath id="SVGID_2_">
			<use xlink:href="#SVGID_1_"  style="overflow:visible;"/>
		</clipPath>
		<g class="st2">
			<path class="st3" d="M66.6-327.7l21.7-138.6c0.3-2.2,2.4-3.7,4.6-3.3c1.2,0.2,2.3,1,2.9,2.1l22.4,41.8l8.9-17
				c1-2,3.4-2.7,5.4-1.7c0.7,0.4,1.3,1,1.7,1.7l60.4,115H66.6z"/>
			
				<linearGradient id="SVGID_3_" gradientUnits="userSpaceOnUse" x1="91.5601" y1="-65.1016" x2="83.5601" y2="-69.2816" gradientTransform="matrix(1 0 0 1 0 -310.0064)">
				<stop  offset="0" style="stop-color:#A52714"/>
				<stop  offset="0.4" style="stop-color:#A52714;stop-opacity:0.5"/>
				<stop  offset="0.8" style="stop-color:#A52714;stop-opacity:0"/>
			</linearGradient>
			<path class="st4" d="M140.6-468.7l-106-9v192l32-42L140.6-468.7z"/>
			<path class="st5" d="M141.5-381.7l-23.3-44.1l-51.6,98.1L141.5-381.7z"/>
			
				<linearGradient id="SVGID_4_" gradientUnits="userSpaceOnUse" x1="125.5489" y1="-76.7313" x2="121.9689" y2="-80.3113" gradientTransform="matrix(1 0 0 1 0 -310.0064)">
				<stop  offset="0" style="stop-color:#A52714;stop-opacity:0.8"/>
				<stop  offset="0.5" style="stop-color:#A52714;stop-opacity:0.21"/>
				<stop  offset="1" style="stop-color:#A52714;stop-opacity:0"/>
			</linearGradient>
			<path class="st6" d="M34.6-477.7h192v192h-192C34.6-285.7,34.6-477.7,34.6-477.7z"/>
			<path class="st7" d="M194.6-327.7L178-430.4c-0.4-2.2-2.4-3.6-4.6-3.3c-0.8,0.1-1.6,0.5-2.2,1.1L66.6-327.7l57.9,32.5
				c3.6,2,8.1,2,11.7,0L194.6-327.7z"/>
			<path class="st8" d="M178.1-430.3c-0.4-2.2-2.4-3.6-4.6-3.3c-0.8,0.1-1.6,0.5-2.2,1.1l-20.8,20.8l-16.3-31.1
				c-1-2-3.4-2.7-5.4-1.7c-0.7,0.4-1.3,1-1.7,1.7l-8.9,17l-22.4-41.8c-1-1.9-3.5-2.7-5.4-1.6c-1.1,0.6-1.9,1.7-2.1,2.9L66.6-327.7
				h-0.1l0.1,0.1l0.6,0.3l83.3-83.4l20.8-20.8c1.6-1.6,4.1-1.6,5.7,0c0.6,0.6,1,1.3,1.1,2.2l16.4,101.7l0.2-0.1L178.1-430.3z
				 M66.8-327.9l21.5-137.4c0.3-2.2,2.4-3.7,4.6-3.3c1.2,0.2,2.3,1,2.9,2.1l22.4,41.8l8.9-17c1-2,3.4-2.7,5.4-1.7
				c0.7,0.4,1.3,1,1.7,1.7l16,30.4L66.8-327.9z"/>
			<path class="st9" d="M136.2-296.2c-3.6,2-8.1,2-11.7,0l-57.8-32.4l-0.1,0.9l57.9,32.5c3.6,2,8.1,2,11.7,0l58.4-32.5l-0.1-0.9
				L136.2-296.2z"/>
			
				<linearGradient id="SVGID_5_" gradientUnits="userSpaceOnUse" x1="-781.0724" y1="-929.976" x2="-731.0024" y2="-980.0461" gradientTransform="matrix(2.67 0 0 -2.67 2148.6318 -2921.7246)">
				<stop  offset="0" style="stop-color:#FFFFFF;stop-opacity:0.1"/>
				<stop  offset="1" style="stop-color:#FFFFFF;stop-opacity:0"/>
			</linearGradient>
			<path class="st10" d="M178.1-430.3c-0.4-2.2-2.4-3.6-4.6-3.3c-0.8,0.1-1.6,0.5-2.2,1.1l-20.8,20.8l-16.3-31.1
				c-1-2-3.4-2.7-5.4-1.7c-0.7,0.4-1.3,1-1.7,1.7l-8.9,17l-22.4-41.8c-1-1.9-3.5-2.7-5.4-1.6c-1.1,0.6-1.9,1.7-2.1,2.9L66.6-327.7
				l57.9,32.5c3.6,2,8.1,2,11.7,0l58.4-32.5L178.1-430.3z"/>
		</g>
	</g>
</g>
<g>
	<g>
		<defs>
			<path id="SVGID_6_" d="M38.5,11.2c-0.1-0.6-0.7-1-1.3-0.9c-0.2,0-0.5,0.1-0.6,0.3l-5.9,5.9L26,7.6c-0.3-0.6-1-0.8-1.5-0.5
				c-0.2,0.1-0.4,0.3-0.5,0.5l-2.5,4.8L15.1,0.6c-0.3-0.5-1-0.8-1.5-0.5C13.3,0.3,13,0.6,13,1L6.8,40.3l16.4,9.2
				c1,0.6,2.3,0.6,3.3,0l16.6-9.2L38.5,11.2z"/>
		</defs>
		<clipPath id="SVGID_7_">
			<use xlink:href="#SVGID_6_"  style="overflow:visible;"/>
		</clipPath>
		<g class="st11">
			<path class="st12" d="M6.8,40.3L13,1c0.1-0.6,0.7-1.1,1.3-0.9c0.3,0.1,0.7,0.3,0.8,0.6l6.4,11.9L24,7.7c0.3-0.6,1-0.8,1.5-0.5
				c0.2,0.1,0.4,0.3,0.5,0.5l17.2,32.7H6.8z"/>
			
				<linearGradient id="SVGID_8_" gradientUnits="userSpaceOnUse" x1="13.9034" y1="336.8695" x2="11.6306" y2="335.682" gradientTransform="matrix(1 0 0 1 0 -310.0064)">
				<stop  offset="0" style="stop-color:#A52714"/>
				<stop  offset="0.4" style="stop-color:#A52714;stop-opacity:0.5"/>
				<stop  offset="0.8" style="stop-color:#A52714;stop-opacity:0"/>
			</linearGradient>
			<path class="st13" d="M27.8,0.3L-2.3-2.3v54.5l9.1-11.9L27.8,0.3z"/>
			<path class="st14" d="M28.1,25l-6.6-12.5L6.8,40.3L28.1,25z"/>
			
				<linearGradient id="SVGID_9_" gradientUnits="userSpaceOnUse" x1="23.5593" y1="333.5656" x2="22.5423" y2="332.5486" gradientTransform="matrix(1 0 0 1 0 -310.0064)">
				<stop  offset="0" style="stop-color:#A52714;stop-opacity:0.8"/>
				<stop  offset="0.5" style="stop-color:#A52714;stop-opacity:0.21"/>
				<stop  offset="1" style="stop-color:#A52714;stop-opacity:0"/>
			</linearGradient>
			<path class="st15" d="M-2.3-2.3h54.5v54.5H-2.3C-2.3,52.3-2.3-2.3-2.3-2.3z"/>
			<path class="st16" d="M43.2,40.3l-4.7-29.2c-0.1-0.6-0.7-1-1.3-0.9c-0.2,0-0.5,0.1-0.6,0.3L6.8,40.3l16.4,9.2
				c1,0.6,2.3,0.6,3.3,0L43.2,40.3z"/>
			<path class="st8" d="M38.5,11.2c-0.1-0.6-0.7-1-1.3-0.9c-0.2,0-0.5,0.1-0.6,0.3l-5.9,5.9L26,7.6c-0.3-0.6-1-0.8-1.5-0.5
				c-0.2,0.1-0.4,0.3-0.5,0.5l-2.5,4.8L15.1,0.6c-0.3-0.5-1-0.8-1.5-0.5C13.3,0.3,13,0.6,13,1L6.8,40.3h0l0,0L7,40.5l23.7-23.7
				l5.9-5.9c0.5-0.5,1.2-0.5,1.6,0c0.2,0.2,0.3,0.4,0.3,0.6l4.7,28.9l0.1,0L38.5,11.2z M6.9,40.3l6.1-39c0.1-0.6,0.7-1.1,1.3-0.9
				c0.3,0.1,0.7,0.3,0.8,0.6l6.4,11.9L24,8c0.3-0.6,1-0.8,1.5-0.5C25.7,7.6,25.9,7.8,26,8l4.5,8.6L6.9,40.3z"/>
			<linearGradient id="SVGID_10_" gradientUnits="userSpaceOnUse" x1="6.8181" y1="45.0426" x2="43.1819" y2="45.0426">
				<stop  offset="0" style="stop-color:#FFFFFF;stop-opacity:0.1"/>
				<stop  offset="1" style="stop-color:#FFFFFF;stop-opacity:0"/>
			</linearGradient>
			<path class="st17" d="M26.6,49.3c-1,0.6-2.3,0.6-3.3,0L6.8,40.1l0,0.3l16.4,9.2c1,0.6,2.3,0.6,3.3,0l16.6-9.2l0-0.3L26.6,49.3z"
				/>
			
				<linearGradient id="SVGID_11_" gradientUnits="userSpaceOnUse" x1="-802.5447" y1="-1097.5748" x2="-788.3201" y2="-1111.7994" gradientTransform="matrix(2.67 0 0 -2.67 2148.6318 -2921.7246)">
				<stop  offset="0" style="stop-color:#FFFFFF;stop-opacity:0.1"/>
				<stop  offset="1" style="stop-color:#FFFFFF;stop-opacity:0"/>
			</linearGradient>
			<path class="st18" d="M38.5,11.2c-0.1-0.6-0.7-1-1.3-0.9c-0.2,0-0.5,0.1-0.6,0.3l-5.9,5.9L26,7.6c-0.3-0.6-1-0.8-1.5-0.5
				c-0.2,0.1-0.4,0.3-0.5,0.5l-2.5,4.8L15.1,0.6c-0.3-0.5-1-0.8-1.5-0.5C13.3,0.3,13,0.6,13,1L6.8,40.3l16.4,9.2
				c1,0.6,2.3,0.6,3.3,0l16.6-9.2L38.5,11.2z"/>
		</g>
	</g>
</g>
</svg>
