<?xml version="1.0" encoding="utf-8"?>
<!-- Generator: Adobe Illustrator 21.1.0, SVG Export Plug-In . SVG Version: 6.00 Build 0)  -->
<svg version="1.1" id="Layer_1" xmlns="http://www.w3.org/2000/svg" xmlns:xlink="http://www.w3.org/1999/xlink" x="0px" y="0px"
	 viewBox="0 0 50 50" style="enable-background:new 0 0 50 50;" xml:space="preserve">
<style type="text/css">
	.st0{fill:#FFFFFF;}
</style>
<g>
	<path class="st0" d="M33.3,16l4.3-4.3l0.3-1.8C30,2.6,17.4,3.4,10.2,11.5c-2,2.2-3.5,5-4.2,7.9l1.6-0.2l8.7-1.4l0.7-0.7
		c3.9-4.2,10.4-4.8,14.9-1.2L33.3,16z"/>
	<path class="st0" d="M43.8,19.3c-1-3.7-3.1-7-5.9-9.5l-6.1,6.1c2.6,2.1,4,5.3,4,8.6v1.1c3,0,5.4,2.4,5.4,5.4c0,3-2.4,5.4-5.4,5.4
		H24.9l-1.1,1.2v6.5l1.1,1h10.9c7.8,0.1,14.2-6.2,14.2-14C50,26.4,47.7,22,43.8,19.3"/>
	<path class="st0" d="M14,45.1h10.9v-8.7H14c-0.8,0-1.5-0.2-2.2-0.5l-1.5,0.5l-4.4,4.3l-0.4,1.5C8,44.1,11,45.1,14,45.1"/>
	<path class="st0" d="M14,16.9C6.2,16.9,0,23.3,0,31.1c0,4.4,2.1,8.5,5.5,11.1l6.3-6.3c-2.7-1.2-3.9-4.5-2.7-7.2
		c1.2-2.7,4.5-3.9,7.2-2.7c1.2,0.5,2.2,1.5,2.7,2.7l6.3-6.3C22.6,18.9,18.4,16.9,14,16.9"/>
</g>
</svg>
