<svg xmlns="http://www.w3.org/2000/svg" viewBox="0 0 50 50"><defs><style>.cls-1{fill:#00b7ff;opacity:0;}.cls-2{fill:#fff;}</style></defs><title>gitlab</title><g id="Layer_2" data-name="Layer 2"><g id="Layer_1-2" data-name="Layer 1"><rect class="cls-1" width="50" height="50"/><g id="_Group_" data-name="&lt;Group&gt;"><polygon id="_Path_" data-name="&lt;Path&gt;" class="cls-2" points="25 48.03 25 48.03 34.21 19.7 15.79 19.7 25 48.03"/><polygon id="_Path_2" data-name="&lt;Path&gt;" class="cls-2" points="25 48.03 15.79 19.7 2.89 19.7 25 48.03"/><path id="_Path_3" data-name="&lt;Path&gt;" class="cls-2" d="M2.89,19.69h0L.09,28.31a1.91,1.91,0,0,0,.69,2.13L25,48Z"/><path id="_Path_4" data-name="&lt;Path&gt;" class="cls-2" d="M2.89,19.69h12.9L10.25,2.63a1,1,0,0,0-1.81,0Z"/><polygon id="_Path_5" data-name="&lt;Path&gt;" class="cls-2" points="25 48.03 34.21 19.7 47.11 19.7 25 48.03"/><path id="_Path_6" data-name="&lt;Path&gt;" class="cls-2" d="M47.11,19.69h0l2.8,8.61a1.91,1.91,0,0,1-.69,2.13L25,48Z"/><path id="_Path_7" data-name="&lt;Path&gt;" class="cls-2" d="M47.11,19.69H34.21L39.75,2.63a1,1,0,0,1,1.81,0Z"/></g></g></g></svg>