<svg xmlns="http://www.w3.org/2000/svg" viewBox="0 0 50 50"><defs><style>.cls-1{fill:#00b7ff;opacity:0;}.cls-2{fill:#fff;}</style></defs><title>html5</title><g id="Layer_2" data-name="Layer 2"><g id="Layer_1-2" data-name="Layer 1"><rect class="cls-1" width="50" height="50"/><path class="cls-2" d="M10.44,46,7.27,9.81H42.73L39.56,46,25.07,50,10.44,46ZM24.93,17.4h-11v1.25L15,30.94H30.45L29.9,36.6l-5,1.38L20,36.6l-.28-3.45H15.27l.55,6.9,9.11,2.49L34,40.05v-.69l1.1-11.74.14-1.24H19.13L18.72,22h17v-1.1L36,18.65V17.4h-11ZM10.58,0h2.21V2.21h2.07V0h2.21V6.77H14.86V4.56H12.79V6.77H10.58V0ZM20.1,2.21H18.17V0h6.21V2.21H22.45V6.77H20.24ZM25.34,0h2.34l1.38,2.35L30.45,0h2.34V6.77H30.59V3.45L29.07,5.8,27.55,3.45V6.77H25.34ZM34,0h2.21V4.56h3.17V6.77H34V0Z"/></g></g></svg>