<svg xmlns="http://www.w3.org/2000/svg" viewBox="0 0 50.01 50"><defs><style>.cls-1{fill:#00b7ff;opacity:0;}.cls-2{fill:#fff;}</style></defs><title>0electron</title><g id="Layer_2" data-name="Layer 2"><g id="Layer_1-2" data-name="Layer 1"><rect class="cls-1" x="0.01" width="50" height="50"/><path class="cls-2" d="M23.51,50a11,11,0,0,0-1.63-.21A24.64,24.64,0,0,1,9.3,44.43,24.21,24.21,0,0,1,.49,29.79,24.38,24.38,0,0,1,5.43,9.48,24.34,24.34,0,0,1,17,1.33,24.66,24.66,0,0,1,26.47,0,24.39,24.39,0,0,1,36.53,2.82c.42.22.42.22,0,.53a7.72,7.72,0,0,0-2.35,3.09c-.11.26-.2.27-.43.16a19.85,19.85,0,0,0-6.07-1.82,20.46,20.46,0,0,0-17.35,6A19.78,19.78,0,0,0,4.82,21.86,19.94,19.94,0,0,0,9.63,38.49a19.51,19.51,0,0,0,12,6.68,19.91,19.91,0,0,0,17.12-5,19.78,19.78,0,0,0,6.44-11.88,20.12,20.12,0,0,0-1.3-11.07c-.1-.26-.1-.37.19-.47a7.53,7.53,0,0,0,3.24-2.27c.19-.22.27-.25.4.05a24.37,24.37,0,0,1,2.13,7.55A25,25,0,0,1,37.06,46.9a24.81,24.81,0,0,1-8.59,2.86c-.55.08-1.1.12-1.66.18-.09,0-.2,0-.27.07H26a1,1,0,0,0-.71-.07A3.76,3.76,0,0,0,24,50Z"/><path class="cls-2" d="M24,50a3.76,3.76,0,0,1,1.3-.07A1,1,0,0,1,26,50Z"/><path class="cls-2" d="M13.63,25A11.39,11.39,0,1,1,25,36.4,11.37,11.37,0,0,1,13.63,25Z"/><path class="cls-2" d="M41.36,14.63a5.19,5.19,0,1,1,5.21-5.16A5.18,5.18,0,0,1,41.36,14.63Z"/></g></g></svg>