<?xml version="1.0" encoding="utf-8"?>
<!-- Generator: Adobe Illustrator 21.1.0, SVG Export Plug-In . SVG Version: 6.00 Build 0)  -->
<svg version="1.1" id="Layer_1" xmlns="http://www.w3.org/2000/svg" xmlns:xlink="http://www.w3.org/1999/xlink" x="0px" y="0px"
	 viewBox="0 0 50 50" style="enable-background:new 0 0 50 50;" xml:space="preserve">
<style type="text/css">
	.st0{fill:#FFFFFF;}
</style>
<title>java</title>
<g>
	<path id="path24" class="st0" d="M44.2,40.7c0.6,1,0,1.5-0.9,1.9c-3.9,1.8-17,2.2-21.1,2.3C18,45,13.8,44.7,9.7,44
		C9,44,6.2,43.4,6,42.7c-0.1-0.8,0.4-1,0.7-1c1.2-0.6,2.5-1,3.8-1.2c0.5-0.1,0.9-0.1,1.4-0.3C10,40,3.8,41,2.4,42.9
		C1.6,44.2,3,44.7,4,45c4.9,1.1,9.9,1.5,14.9,1.5c5.9,0,20,0,25.2-3.5c0.3-0.2,0.9-0.6,1-1.1S44.6,40.9,44.2,40.7"/>
	<path id="path26" class="st0" d="M27.2,23.7c1.1-0.6,2.1-1.4,3-2.3c1-0.9,1.6-2,1.8-3.3c-0.1-1.4-0.6-2.7-1.4-3.9
		c-1.7-2.6-3.1-4.2-0.8-7.1c0.8-0.9,1.7-1.8,2.6-2.6c1.5-1.2,3-2.2,4.6-3.2l1.6-1c-1.4,0.4-2.7,0.8-4,1.3c-1.2,0.5-2.4,1.1-3.6,1.7
		c-3.6,2.1-7.1,5.3-5.6,9.8c1,3,3.8,4.8,3.6,7.1C28.7,21.5,28.1,22.7,27.2,23.7"/>
	<path id="path28" class="st0" d="M34.7,38.5c-1-0.4-2-0.8-2.9-1.4c-0.6-0.3-0.3-0.3-1.1-0.1c-3.6,0.6-7.3,0.8-10.9,0.6
		c-0.8,0-3.1,0-3.5-0.8c-0.5-0.8,0-0.8,0.3-1.1c-2,0.4-4.1,2.1-1.3,3.5c3.2,1.6,9.9,1.6,13.4,1C30.7,39.8,32.7,39.3,34.7,38.5"/>
	<path id="path30" class="st0" d="M35.6,31.8c-0.8-0.2-1.5-0.6-2.1-1.2c-0.5-0.4-0.3-0.3-1.3-0.1c-3.5,0.6-13.9,1.6-16.9,0.4
		c-0.4-0.2-0.8-0.4-0.8-0.8c0-0.5,0.4-0.8,0.6-1.1c-2.3,0.3-4.6,2.6-1.5,3.7c5,1.1,10.2,1.4,15.3,0.8C31.2,33.1,33.5,32.6,35.6,31.8
		"/>
	<path id="path32" class="st0" d="M38,24c-0.5,0.1-1,0.1-1.5,0.2l-1.6,0.2c-3.2,0.5-6.7,0.8-10,1c-2.5,0.1-11.9,0.5-13.4-0.8
		c0-0.6,0.6-1,1-1.2c1.6-0.7,3.2-1.3,4.9-1.7c-3.4,0.2-6.7,1.1-9.8,2.6c-2.2,1.4,1.4,1.9,2.8,2.1c7.7,0.9,15.5,0.7,23.1-0.6
		c0.8,0,1.7-0.2,2.4-0.7C36.7,24.8,37.5,24.4,38,24"/>
	<path id="path34" class="st0" d="M10.7,47.8c3.1,0.9,6.3,1.5,9.5,1.7c3.6,0.3,7.2,0.3,10.9,0c4.8-0.1,9.5-1,13.9-2.9
		c0.9-0.5,2.7-1.6,2.8-2.8c-0.3,0.2-0.6,0.4-0.8,0.6c-7,4.8-23.1,4.4-31.4,3.8L10.7,47.8"/>
	<path id="path36" class="st0" d="M39.6,22.1c1.6-0.5,3.4-0.3,4.8,0.8c1.1,1.3,1.3,3.2,0.3,4.6c-1.4,2.1-3.3,3.8-5.5,5.1
		c-0.3,0.2-0.7,0.4-1,0.6c1.9-0.5,3.8-1.3,5.5-2.3c1.6-0.9,3-2.3,3.8-3.9c0.8-2,0-4.2-1.9-5.2c-1-0.5-2.1-0.7-3.1-0.6
		C41.4,21,40.4,21.4,39.6,22.1"/>
</g>
</svg>
