<svg xmlns="http://www.w3.org/2000/svg" viewBox="0 0 50 50"><defs><style>.cls-1{fill:#00b7ff;opacity:0;}.cls-2{fill:#fff;}</style></defs><title>js</title><g id="Layer_2" data-name="Layer 2"><g id="Layer_1-2" data-name="Layer 1"><rect class="cls-1" width="50" height="50"/><path class="cls-2" d="M0,50V0A.54.54,0,0,1,.26,0H49.7C50,0,50,0,50,.3V49.71A.83.83,0,0,1,50,50a.52.52,0,0,1-.26,0H.26A.48.48,0,0,1,0,50Zm38.57-4.09a11.09,11.09,0,0,0,3.41-.5A6,6,0,0,0,46.46,39a6,6,0,0,0-2.36-4.65,15.83,15.83,0,0,0-3.51-2c-.93-.41-1.89-.76-2.8-1.22a4.65,4.65,0,0,1-1.18-.8,2,2,0,0,1,.72-3.25,3,3,0,0,1,3.13.58,4.26,4.26,0,0,1,.83,1.05c.07.11.11.14.24.06l3.42-2.13c.1-.06.13-.11.06-.22a6.73,6.73,0,0,0-4-3.2,9.5,9.5,0,0,0-4.73-.12A5.9,5.9,0,0,0,31.38,29a6.16,6.16,0,0,0,1.37,4.18,8.6,8.6,0,0,0,2.66,2c1,.54,2.09.94,3.14,1.39a14.14,14.14,0,0,1,1.93.94,2.46,2.46,0,0,1,1.1,1.22,2.07,2.07,0,0,1-1.39,2.74,5.08,5.08,0,0,1-4.14-.26,5.48,5.48,0,0,1-2.11-2c-.11-.18-.19-.18-.37-.08q-1.72,1-3.46,1.94c-.15.09-.17.15-.09.3a8.35,8.35,0,0,0,2.89,3A10.58,10.58,0,0,0,38.57,45.88ZM27,31.42h0q0-4.09,0-8.19c0-.21,0-.29-.28-.29q-2.08,0-4.17,0c-.24,0-.28.07-.28.29q0,7.68,0,15.36a6.84,6.84,0,0,1-.09,1.24,2.06,2.06,0,0,1-1,1.61,3,3,0,0,1-3.46-.66,7.56,7.56,0,0,1-.89-1.31c-.07-.12-.12-.15-.25-.07l-3.54,2.11c-.12.07-.14.13-.08.26a7,7,0,0,0,3.75,3.5,9.16,9.16,0,0,0,6.17.15,5.46,5.46,0,0,0,3.35-2.78A6.88,6.88,0,0,0,27,39.51C27.06,36.81,27,34.11,27,31.42Z"/></g></g></svg>