<?xml version="1.0" encoding="utf-8"?>
<!-- Generator: Adobe Illustrator 21.1.0, SVG Export Plug-In . SVG Version: 6.00 Build 0)  -->
<svg version="1.1"
	 id="Calque_1" inkscape:export-filename="./Tux Mono.png" inkscape:export-xdpi="90" inkscape:export-ydpi="90" inkscape:version="0.91 r13725" sodipodi:docname="Tux Mono.svg" xmlns:cc="http://creativecommons.org/ns#" xmlns:dc="http://purl.org/dc/elements/1.1/" xmlns:inkscape="http://www.inkscape.org/namespaces/inkscape" xmlns:rdf="http://www.w3.org/1999/02/22-rdf-syntax-ns#" xmlns:sodipodi="http://sodipodi.sourceforge.net/DTD/sodipodi-0.dtd" xmlns:svg="http://www.w3.org/2000/svg"
	 xmlns="http://www.w3.org/2000/svg" xmlns:xlink="http://www.w3.org/1999/xlink" x="0px" y="0px" viewBox="0 0 50 50"
	 style="enable-background:new 0 0 50 50;" xml:space="preserve">
<style type="text/css">
	.st0{fill:#202020;}
	.st1{fill:#FFFFFF;}
</style>
<defs>
	
	<inkscape:path-effect  effect="spiro" id="path-effect29672-0" is_visible="true"></inkscape:path-effect>
	<inkscape:path-effect  effect="spiro" id="path-effect29678-1" is_visible="true"></inkscape:path-effect>
	<inkscape:path-effect  effect="spiro" id="path-effect29678-4-6" is_visible="true"></inkscape:path-effect>
	<inkscape:path-effect  effect="spiro" id="path-effect28714-5" is_visible="true"></inkscape:path-effect>
	<inkscape:path-effect  effect="spiro" id="path-effect29721-2" is_visible="true"></inkscape:path-effect>
	<inkscape:path-effect  effect="spiro" id="path-effect28463-8-0" is_visible="true"></inkscape:path-effect>
	<inkscape:path-effect  effect="spiro" id="path-effect28463-0-7" is_visible="true"></inkscape:path-effect>
	<inkscape:path-effect  effect="spiro" id="path-effect28797-8-1" is_visible="true"></inkscape:path-effect>
	<inkscape:path-effect  effect="spiro" id="path-effect28797-81" is_visible="true"></inkscape:path-effect>
	<inkscape:path-effect  effect="spiro" id="path-effect28273-4-2" is_visible="true"></inkscape:path-effect>
	<inkscape:path-effect  effect="spiro" id="path-effect28851-0" is_visible="true"></inkscape:path-effect>
	<inkscape:path-effect  effect="spiro" id="path-effect28881-6" is_visible="true"></inkscape:path-effect>
	<inkscape:path-effect  effect="spiro" id="path-effect28974-8" is_visible="true"></inkscape:path-effect>
	<inkscape:path-effect  effect="spiro" id="path-effect29455-3" is_visible="true"></inkscape:path-effect>
	<inkscape:path-effect  effect="spiro" id="path-effect28463-4" is_visible="true"></inkscape:path-effect>
	<inkscape:path-effect  effect="spiro" id="path-effect28489-4" is_visible="true"></inkscape:path-effect>
	<inkscape:path-effect  effect="spiro" id="path-effect28273-54-7" is_visible="true"></inkscape:path-effect>
	<inkscape:path-effect  effect="spiro" id="path-effect28273-44" is_visible="true"></inkscape:path-effect>
	<inkscape:path-effect  effect="spiro" id="path-effect28384-7" is_visible="true"></inkscape:path-effect>
	<inkscape:path-effect  effect="spiro" id="path-effect29553-7" is_visible="true"></inkscape:path-effect>
	<inkscape:path-effect  effect="spiro" id="path-effect29707-7-6" is_visible="true"></inkscape:path-effect>
	<inkscape:path-effect  effect="spiro" id="path-effect4500-7" is_visible="true"></inkscape:path-effect>
	<inkscape:path-effect  effect="spiro" id="path-effect4582-3" is_visible="true"></inkscape:path-effect>
	<inkscape:path-effect  effect="spiro" id="path-effect14300-7" is_visible="true"></inkscape:path-effect>
	<inkscape:path-effect  effect="spiro" id="path-effect14300-2-7" is_visible="true"></inkscape:path-effect>
	<inkscape:path-effect  effect="spiro" id="path-effect14300-2-2-0" is_visible="true"></inkscape:path-effect>
	<inkscape:path-effect  effect="spiro" id="path-effect29716-0-0" is_visible="true"></inkscape:path-effect>
	<inkscape:path-effect  effect="spiro" id="path-effect29716-0-8-3" is_visible="true"></inkscape:path-effect>
	<inkscape:path-effect  effect="spiro" id="path-effect29716-6-1" is_visible="true"></inkscape:path-effect>
	<inkscape:path-effect  effect="spiro" id="path-effect14972-2-2" is_visible="true"></inkscape:path-effect>
	<inkscape:path-effect  effect="spiro" id="path-effect15017-9" is_visible="true"></inkscape:path-effect>
	<inkscape:path-effect  effect="spiro" id="path-effect4669-1" is_visible="true"></inkscape:path-effect>
	<inkscape:path-effect  effect="spiro" id="path-effect4669-4-3" is_visible="true"></inkscape:path-effect>
</defs>
<sodipodi:namedview  bordercolor="#666666" borderopacity="1" gridtolerance="10" guidetolerance="10" id="namedview19" inkscape:current-layer="Calque_1" inkscape:cx="730.76384" inkscape:cy="436.78527" inkscape:pageopacity="0" inkscape:pageshadow="2" inkscape:window-height="1061" inkscape:window-maximized="0" inkscape:window-width="1341" inkscape:window-x="0" inkscape:window-y="0" inkscape:zoom="0.25" objecttolerance="10" pagecolor="#ffffff" showgrid="false">
	</sodipodi:namedview>
<path id="path3" class="st0" d="M44.2,39.4C44.2,39.4,44.2,39.4,44.2,39.4c-0.4-0.4-0.5-1.1-0.7-1.9c-0.2-0.8-0.4-1.6-1-2.2
	c0,0,0,0,0,0c-0.1-0.1-0.3-0.2-0.4-0.3c-0.1-0.1-0.3-0.1-0.4-0.2c0.9-2.7,0.5-5.3-0.4-7.7c-1.1-2.9-3.1-5.5-4.5-7.3
	c-1.7-2.1-3.3-4.1-3.3-7C33.5,8.3,33.9,0,26.1,0c-0.3,0-0.7,0-1,0c-8.8,0.7-6.5,10-6.6,13.2c-0.2,2.3-0.6,4.1-2.2,6.3
	c-1.8,2.2-4.4,5.7-5.7,9.4c-0.6,1.7-0.9,3.5-0.6,5.2c-0.1,0.1-0.2,0.1-0.2,0.2c-0.5,0.6-0.9,1.3-1.4,1.8c-0.4,0.4-1,0.6-1.7,0.8
	c-0.7,0.2-1.4,0.6-1.8,1.4c0,0,0,0,0,0c0,0,0,0,0,0c-0.2,0.4-0.3,0.8-0.3,1.2c0,0.4,0.1,0.8,0.1,1.2c0.1,0.8,0.2,1.5,0.1,2
	c-0.5,1.4-0.6,2.4-0.2,3.1c0.4,0.7,1.1,1,2,1.2c1.7,0.4,4,0.3,5.8,1.2l0.2-0.3l-0.2,0.3c1.9,1,3.9,1.4,5.5,1c1.1-0.3,2.1-0.9,2.5-2
	c1.2,0,2.6-0.5,4.7-0.6c1.5-0.1,3.3,0.5,5.4,0.4c0.1,0.2,0.1,0.4,0.2,0.7c0,0,0,0,0,0c0.8,1.6,2.3,2.4,3.9,2.2
	c1.6-0.1,3.3-1.1,4.7-2.7L39.1,47l0.3,0.2c1.3-1.6,3.5-2.3,5-3.1c0.7-0.4,1.3-1,1.4-1.8C45.7,41.5,45.2,40.6,44.2,39.4z"/>
<path id="path5" class="st1" d="M45,42.3c0,0.5-0.4,0.9-1,1.3c-1.3,0.8-3.6,1.5-5.1,3.3c-1.3,1.5-2.9,2.4-4.3,2.5
	c-1.4,0.1-2.6-0.5-3.3-1.9l0,0l0,0c-0.4-0.8-0.3-2.1,0.1-3.5c0.4-1.4,0.9-2.8,1-4v0c0.1-1.5,0.2-2.8,0.4-3.8c0.2-1,0.6-1.7,1.3-2.1
	c0,0,0.1,0,0.1-0.1c0.1,1.3,0.7,2.6,1.8,2.9c1.2,0.3,3-0.7,3.8-1.6c0.1,0,0.3,0,0.4,0c0.7,0,1.2,0,1.8,0.5l0,0l0,0
	c0.4,0.4,0.6,1.1,0.8,1.8c0.2,0.8,0.3,1.6,0.9,2.2l0,0l0,0C44.7,41,45,41.8,45,42.3z"/>
<path id="path7" class="st1" d="M20,45.9L20,45.9L20,45.9c-0.1,1.6-1,2.4-2.3,2.7c-1.3,0.3-3.2,0-5-1c0,0,0,0,0,0
	c-2-1.1-4.4-1-6-1.3c-0.8-0.2-1.3-0.4-1.5-0.9c-0.2-0.5-0.2-1.2,0.3-2.6l0,0l0,0c0.2-0.7,0.1-1.6-0.1-2.3c-0.1-0.8-0.2-1.5,0.1-2
	l0,0c0.3-0.6,0.8-0.9,1.4-1.1c0.6-0.2,1.3-0.4,1.9-1l0,0l0,0c0.5-0.6,0.9-1.3,1.4-1.8c0.4-0.4,0.8-0.7,1.4-0.7c0,0,0,0,0,0
	c0.1,0,0.2,0,0.3,0c0.8,0.1,1.5,0.7,2.1,1.6l1.9,3.5l0,0l0,0c0.5,1.1,1.6,2.2,2.5,3.4C19.4,43.8,20.1,45,20,45.9z"/>
<path id="path9" class="st1" d="M29.5,13.5c-0.2-0.3-0.5-0.6-1-0.8l0,0l0,0c-1.1-0.5-1.6-0.5-2.2-0.9c-1-0.6-1.8-0.9-2.5-0.9
	c-0.4,0-0.7,0.1-1,0.2C22,11.4,21.4,12,21,12.3l0,0c0,0,0,0,0,0c-0.1,0.1-0.2,0.1-0.4,0.3c-0.2,0.2-0.5,0.4-1,0.7
	c-0.4,0.3-0.5,0.7-0.4,1.2c0.1,0.5,0.6,1,1.4,1.5l0,0l0,0c0.5,0.3,0.9,0.7,1.3,1c0.2,0.2,0.4,0.3,0.7,0.4s0.6,0.2,0.9,0.2
	c0.9,0.1,1.5-0.2,2.1-0.5c0.6-0.3,1.1-0.7,1.6-0.9l0,0l0,0c1.1-0.4,2-1.1,2.2-1.8C29.7,14.1,29.7,13.8,29.5,13.5z"/>
<path id="path11" inkscape:connector-curvature="0" sodipodi:nodetypes="sscccccssszzs" class="st0" d="M26.6,15.2
	c-0.9,0.5-2,1.1-3.1,1.1c-1.1,0-2-0.5-2.7-1c-0.3-0.3-0.6-0.5-0.8-0.7c-0.3-0.3-0.3-0.6-0.2-0.6c0.2,0,0.3,0.3,0.4,0.5
	c0.2,0.2,0.5,0.4,0.8,0.7c0.6,0.5,1.4,1,2.4,1c1,0,2.2-0.6,2.9-1c0.4-0.2,0.9-0.6,1.4-1c0.3-0.2,0.3-0.5,0.6-0.5
	c0.3,0,0.1,0.3-0.3,0.6C27.7,14.5,27.1,14.9,26.6,15.2z"/>
<path id="path13" class="st1" d="M40.6,34.7c-0.1,0-0.3,0-0.4,0c0,0,0,0,0,0c0.3-1-0.4-1.7-2.2-2.6c-1.9-0.8-3.4-0.8-3.7,0.9
	c0,0.1,0,0.2,0,0.3c-0.1,0.1-0.3,0.1-0.4,0.2c-0.9,0.5-1.4,1.4-1.7,2.5c-0.3,1.1-0.4,2.4-0.4,3.9c0,0,0,0,0,0c0,0.7-0.4,1.8-0.7,2.8
	c-3.1,2.2-7.5,3.2-11.2,0.7c-0.3-0.4-0.5-0.8-0.8-1.2c-0.2-0.2-0.4-0.5-0.6-0.7c0.4,0,0.7-0.1,1-0.2c0.3-0.1,0.6-0.4,0.7-0.7
	c0.2-0.6,0-1.5-0.7-2.4c-0.7-1-1.9-2.1-3.7-3.2c0,0,0,0,0,0c-1.3-0.8-2.1-1.8-2.4-2.9c-0.3-1.1-0.3-2.3,0-3.4
	c0.5-2.2,1.8-4.4,2.7-5.8c0.2-0.2,0.1,0.3-0.8,2c-0.8,1.6-2.4,5.2-0.3,8c0.1-2,0.5-4.1,1.3-6c1.2-2.7,3.6-7.3,3.8-11
	c0.1,0.1,0.4,0.3,0.6,0.4c0,0,0,0,0,0c0.5,0.3,0.8,0.7,1.2,1c0.4,0.4,1,0.7,1.8,0.7c0.1,0,0.2,0,0.2,0c0.9,0,1.5-0.3,2.1-0.6
	c0.6-0.3,1.1-0.7,1.5-0.9c0,0,0,0,0,0c1-0.3,1.7-0.8,2.2-1.5c0.8,3,2.5,7.3,3.6,9.3c0.6,1.1,1.8,3.5,2.3,6.3c0.3,0,0.7,0,1.1,0.1
	c1.3-3.5-1.1-7.2-2.3-8.3c-0.5-0.4-0.5-0.6-0.3-0.6c1.2,1.1,2.9,3.3,3.4,5.8c0.3,1.1,0.3,2.3,0,3.5c0.1,0.1,0.3,0.1,0.4,0.2
	C40.2,32.5,40.9,33.4,40.6,34.7z"/>
<path id="path15" inkscape:connector-curvature="0" sodipodi:nodetypes="ccccccccccccccccccccccccscccc" class="st1" d="M29.6,10.1
	c0,0.6-0.1,1.1-0.3,1.6c-0.1,0.3-0.3,0.5-0.4,0.7c-0.1,0-0.1-0.1-0.2-0.1c-0.2-0.1-0.4-0.2-0.6-0.2C27.9,12,27.8,12,27.6,12
	c0.1-0.1,0.3-0.3,0.4-0.5c0.1-0.3,0.2-0.5,0.2-0.9c0,0,0,0,0,0c0-0.3,0-0.6-0.1-0.8c-0.1-0.3-0.2-0.5-0.4-0.7
	c-0.2-0.2-0.3-0.2-0.6-0.3c0,0,0,0,0,0c-0.2,0-0.4,0.1-0.5,0.2c-0.2,0.2-0.3,0.4-0.4,0.6c-0.1,0.3-0.2,0.5-0.2,0.9c0,0,0,0,0,0
	c0,0.2,0,0.3,0,0.5c-0.4-0.2-0.9-0.3-1.3-0.4c0-0.2,0-0.3,0-0.5v0c0-0.6,0.1-1.1,0.3-1.6c0.2-0.5,0.5-0.9,0.9-1.2
	c0.4-0.3,0.8-0.4,1.2-0.4h0c0.4,0,0.8,0.1,1.2,0.4C28.7,7.6,29,8,29.3,8.5C29.5,9,29.6,9.5,29.6,10.1C29.6,10.1,29.6,10.1,29.6,10.1
	L29.6,10.1z"/>
<path id="path17" inkscape:connector-curvature="0" sodipodi:nodetypes="cccccccccccccccccccccccccccccc" class="st1" d="M22.8,10.7
	c-0.1,0-0.1,0-0.2,0.1c-0.3,0.1-0.6,0.2-0.8,0.4c0-0.2,0-0.3,0-0.5c0,0,0,0,0,0c0-0.3-0.1-0.5-0.2-0.7c-0.1-0.2-0.2-0.4-0.3-0.5
	c-0.1-0.1-0.2-0.2-0.4-0.2c0,0,0,0,0,0c-0.2,0-0.3,0.1-0.4,0.2c-0.1,0.1-0.2,0.3-0.3,0.6c-0.1,0.2-0.1,0.5,0,0.7c0,0,0,0,0,0
	c0,0.3,0.1,0.5,0.2,0.7c0.1,0.2,0.2,0.4,0.3,0.5c0,0,0,0,0.1,0.1c-0.1,0.1-0.2,0.2-0.4,0.3c-0.1,0.1-0.2,0.1-0.3,0.2
	c-0.2-0.2-0.4-0.5-0.6-0.9c-0.2-0.4-0.3-0.9-0.3-1.4v0c0-0.5,0-0.9,0.2-1.4c0.1-0.5,0.3-0.8,0.6-1c0.3-0.3,0.5-0.4,0.9-0.4
	c0,0,0.1,0,0.1,0c0.3,0,0.6,0.1,0.8,0.3c0.3,0.2,0.5,0.5,0.7,1c0.2,0.4,0.3,0.9,0.3,1.4v0C22.9,10.3,22.9,10.5,22.8,10.7L22.8,10.7z
	"/>
<path id="path28396-7" inkscape:connector-curvature="0" sodipodi:nodetypes="aaaaaaa" class="st0" d="M24.3,11.9
	c0,0.1,0.2,0.1,0.3,0.2c0.1,0.1,0.2,0.2,0.3,0.2c0.1,0,0.3,0,0.3-0.1c0-0.1-0.2-0.2-0.3-0.3c-0.2-0.1-0.4-0.1-0.5,0
	C24.4,11.8,24.3,11.8,24.3,11.9L24.3,11.9z"/>
<path id="path5461" inkscape:connector-curvature="0" sodipodi:nodetypes="aaaaaaa" class="st0" d="M23.2,11.9
	c0,0.1-0.2,0.1-0.3,0.2c-0.1,0.1-0.2,0.2-0.3,0.2c-0.1,0-0.3,0-0.3-0.1c0-0.1,0.2-0.2,0.3-0.3c0.2-0.1,0.4-0.1,0.5,0
	C23.2,11.8,23.2,11.8,23.2,11.9L23.2,11.9z"/>
</svg>
