<?xml version="1.0" encoding="utf-8"?>
<!-- Generator: Adobe Illustrator 21.1.0, SVG Export Plug-In . SVG Version: 6.00 Build 0)  -->
<svg version="1.1"
	 id="svg1968" inkscape:version="0.44" sodipodi:docbase="C:\Dokumente und Einstellungen\Andreas\Eigene Dateien\Eigene Bilder\sonstiges\Logos\Vektor\Computer, Electronics" sodipodi:docname="MacOS.svg" sodipodi:version="0.32" xmlns:cc="http://web.resource.org/cc/" xmlns:dc="http://purl.org/dc/elements/1.1/" xmlns:inkscape="http://www.inkscape.org/namespaces/inkscape" xmlns:rdf="http://www.w3.org/1999/02/22-rdf-syntax-ns#" xmlns:sodipodi="http://sodipodi.sourceforge.net/DTD/sodipodi-0.dtd" xmlns:svg="http://www.w3.org/2000/svg"
	 xmlns="http://www.w3.org/2000/svg" xmlns:xlink="http://www.w3.org/1999/xlink" x="0px" y="0px" viewBox="0 0 50 50"
	 style="enable-background:new 0 0 50 50;" xml:space="preserve">
<style type="text/css">
	.st0{fill:#E2E2E2;}
	.st1{fill:#FFFFFF;}
	.st2{fill:#6B6B6B;}
</style>
<sodipodi:namedview  bordercolor="#666666" borderopacity="1.0" height="156.84mm" id="base" inkscape:current-layer="layer1" inkscape:cx="350" inkscape:cy="205.14359" inkscape:document-units="px" inkscape:pageopacity="0.0" inkscape:pageshadow="2" inkscape:window-height="574" inkscape:window-width="904" inkscape:window-x="56" inkscape:window-y="28" inkscape:zoom="0.35" pagecolor="#ffffff" units="mm" width="165.11mm">
	</sodipodi:namedview>
<g>
	<path class="st0" d="M27.7,6.4c-7.2,13-7,21.1-6.9,21h8.5c-0.2,0.8-2.6,10.3-0.3,16.2h18.9V6.4H27.7z M35.4,17.3H33V12h2.4V17.3z"
		/>
	<path class="st1" d="M29.8,27.4h-8.5c0,0.1-1-6.6,6.9-21H2.1v37.2h27.4C27.2,37,29.6,28.2,29.8,27.4z M13.3,12h2.4v5.3h-2.4V12z
		 M27.1,36.7C20.5,37,13.4,35.8,9,33.2l1.1-1.9c4.4,2.3,9.6,3.5,17,3.2V36.7z"/>
	<path id="_140071192" class="st2" d="M30.3,50c-3.6-7.2-4.1-15.4-2.7-21.3h-8C19.9,16.2,26.2,5.8,31.1,0l1.6,1.3
		c-4,5-9.9,13.7-10.9,25.3h8.5c-0.7,2.4-1.2,5-1.3,7.7c4.9-0.5,7.4-1.1,10.9-2.9l1.3,1.9c-3.1,1.7-7.5,2.9-12.2,3.2
		c0.2,4.2,1.2,8.3,3.2,12.5L30.3,50L30.3,50z"/>
</g>
</svg>
