<svg xmlns="http://www.w3.org/2000/svg" viewBox="0 0 50 50"><defs><style>.cls-1{fill:#00b7ff;opacity:0;}.cls-2{fill:#fff;}.cls-3{fill:#232531;}</style></defs><title>php</title><g id="Layer_2" data-name="Layer 2"><g id="Layer_1-2" data-name="Layer 1"><rect class="cls-1" width="50" height="50"/><path class="cls-2" d="M0,25.38q0-.38,0-.75a.9.9,0,0,0,0-.1A6.78,6.78,0,0,1,.28,23,9.26,9.26,0,0,1,2.43,19.4,15.77,15.77,0,0,1,5.7,16.73a27.29,27.29,0,0,1,6.52-2.92,39,39,0,0,1,5.08-1.2q1.39-.24,2.79-.38c1-.11,2.1-.18,3.15-.22a47.68,47.68,0,0,1,5.58.12q1.59.13,3.16.37a40.28,40.28,0,0,1,5,1.07,29.33,29.33,0,0,1,6.38,2.58,17.82,17.82,0,0,1,3.58,2.58A11.12,11.12,0,0,1,49,21.34a7.43,7.43,0,0,1,1,3.47,7.18,7.18,0,0,1-.78,3.42,10.88,10.88,0,0,1-2.47,3.19,18.65,18.65,0,0,1-4,2.77,31.19,31.19,0,0,1-7,2.56,43.05,43.05,0,0,1-6.92,1.11c-1.14.09-2.29.14-3.43.15-.86,0-1.73,0-2.59-.05s-1.79-.11-2.68-.2-2.07-.25-3.09-.43a39.41,39.41,0,0,1-4.46-1,30.11,30.11,0,0,1-4.91-1.92,19.39,19.39,0,0,1-4.26-2.82A11.53,11.53,0,0,1,1.1,28.81a7.66,7.66,0,0,1-1-2.94C0,25.71,0,25.54,0,25.38Zm12.88,3.73h1.33a5.12,5.12,0,0,0,1-.08,5.89,5.89,0,0,0,4-2.77,6.26,6.26,0,0,0,.91-2.7,5.79,5.79,0,0,0-.08-1.95,3.18,3.18,0,0,0-1.43-2.07A4.91,4.91,0,0,0,16,18.84c-2.06,0-4.11,0-6.17,0-.09,0-.12,0-.14.11q-.49,2.5-1,5l-1,5.12q-.35,1.76-.7,3.52c0,.1,0,.12.1.12h3c.08,0,.11,0,.12-.1l.64-3.4c0-.07,0-.1.12-.1ZM36,18.83H32.81c-.08,0-.11,0-.13.1-.09.47-.18.94-.28,1.41l-1.07,5.44-1,5.1q-.17.86-.34,1.71c0,.08,0,.11.09.11h3.05c.07,0,.1,0,.11-.09,0-.28.11-.57.16-.85q.24-1.28.48-2.56c0-.08,0-.12.13-.11h3.12a5.63,5.63,0,0,0,4.14-1.69,6.29,6.29,0,0,0,1.77-5.66,3.09,3.09,0,0,0-1.73-2.37,5.4,5.4,0,0,0-2.45-.56Zm-7.5,10.27h1.61c.08,0,.11,0,.12-.1l.46-2.7q.35-2.07.71-4.13a3.24,3.24,0,0,0,0-1.16,2.28,2.28,0,0,0-1.29-1.66,5.1,5.1,0,0,0-2.33-.53H25.1c-.22,0-.22,0-.18-.21v-.05l.61-3.22c0-.07,0-.12-.08-.12H22.4c-.08,0-.1,0-.11.1,0,.26-.1.52-.15.78l-1.22,6.17L19.59,29c0,.13,0,.13.11.13h3c.1,0,.13,0,.15-.12q.33-1.69.67-3.38.41-2.05.82-4.1c0-.09.06-.11.14-.11H26.9l.39,0a.71.71,0,0,1,.73.92c0,.33-.11.65-.17,1L26.78,29c0,.12,0,.12.1.12Z"/><path class="cls-3" d="M12.88,29.11H11.06c-.08,0-.11,0-.12.1l-.64,3.4c0,.08,0,.1-.12.1h-3c-.09,0-.12,0-.1-.12q.35-1.76.7-3.52l1-5.12q.49-2.5,1-5c0-.09.05-.11.14-.11,2.06,0,4.11,0,6.17,0a4.91,4.91,0,0,1,2.61.72,3.18,3.18,0,0,1,1.43,2.07,5.79,5.79,0,0,1,.08,1.95,6.26,6.26,0,0,1-.91,2.7,5.89,5.89,0,0,1-4,2.77,5.12,5.12,0,0,1-1,.08H12.88Zm1-7.71H12.61c-.1,0-.13,0-.13.12a.27.27,0,0,1,0,.05q-.41,2.44-.82,4.88c0,.09,0,.09.09.09h1.61a4.37,4.37,0,0,0,1.22-.16,2.63,2.63,0,0,0,1.4-.86,3.38,3.38,0,0,0,.63-1.37,4.46,4.46,0,0,0,.11-.61,3.43,3.43,0,0,0,0-.83,1.33,1.33,0,0,0-.75-1,2.46,2.46,0,0,0-1-.26C14.61,21.38,14.19,21.41,13.84,21.4Z"/><path class="cls-3" d="M36,18.83h2.9a5.4,5.4,0,0,1,2.45.56,3.09,3.09,0,0,1,1.73,2.37,6.29,6.29,0,0,1-1.77,5.66,5.63,5.63,0,0,1-4.14,1.69H34c-.09,0-.12,0-.13.11q-.24,1.28-.48,2.56c-.05.28-.11.56-.16.85,0,.07,0,.09-.11.09H30.08c-.08,0-.11,0-.09-.11q.17-.86.34-1.71l1-5.1,1.07-5.44c.09-.47.19-.94.28-1.41,0-.09,0-.1.13-.1Zm.89,2.57H35.6c-.18,0-.15,0-.18.16-.14.82-.28,1.65-.41,2.47s-.26,1.59-.4,2.39c0,.09,0,.13.1.12H36a5.72,5.72,0,0,0,1.07-.06A3.49,3.49,0,0,0,38.4,26a2.7,2.7,0,0,0,1.06-1.5A6.06,6.06,0,0,0,39.72,23a1.33,1.33,0,0,0-.55-1.24A2.21,2.21,0,0,0,38,21.42C37.61,21.38,37.2,21.41,36.86,21.4Z"/><path class="cls-3" d="M28.47,29.11H26.89c-.13,0-.13,0-.1-.12l1.07-5.67c.06-.32.13-.65.17-1a.71.71,0,0,0-.73-.92l-.39,0H24.48c-.09,0-.13,0-.14.11q-.4,2.05-.82,4.1-.34,1.69-.67,3.38c0,.09,0,.12-.15.12h-3c-.13,0-.13,0-.11-.13l1.32-6.71,1.22-6.17c.05-.26.1-.52.15-.78,0-.07,0-.1.11-.1h3.06c.12,0,.09.06.08.12l-.61,3.22v.05c0,.21,0,.21.18.21h2.69a5.1,5.1,0,0,1,2.33.53A2.28,2.28,0,0,1,31.41,21a3.24,3.24,0,0,1,0,1.16q-.36,2.07-.71,4.13L30.2,29c0,.07,0,.1-.12.1Z"/><path class="cls-2" d="M13.84,21.4c.35,0,.77,0,1.19,0a2.46,2.46,0,0,1,1,.26,1.33,1.33,0,0,1,.75,1,3.43,3.43,0,0,1,0,.83,4.46,4.46,0,0,1-.11.61A3.38,3.38,0,0,1,16,25.52a2.63,2.63,0,0,1-1.4.86,4.37,4.37,0,0,1-1.22.16H11.74c-.06,0-.1,0-.09-.09q.41-2.44.82-4.88a.27.27,0,0,0,0-.05c0-.09,0-.12.13-.12Z"/><path class="cls-2" d="M36.86,21.4c.34,0,.76,0,1.17,0a2.21,2.21,0,0,1,1.14.38A1.33,1.33,0,0,1,39.72,23a6.06,6.06,0,0,1-.26,1.46A2.7,2.7,0,0,1,38.4,26a3.49,3.49,0,0,1-1.32.48,5.72,5.72,0,0,1-1.07.06h-1.3c-.11,0-.12,0-.1-.12q.2-1.19.4-2.39c.14-.82.27-1.65.41-2.47,0-.19,0-.16.18-.16Z"/></g></g></svg>