<svg xmlns="http://www.w3.org/2000/svg" viewBox="0 0 50 50"><defs><style>.cls-1{fill:#00b7ff;opacity:0;}.cls-2,.cls-3,.cls-4,.cls-5,.cls-6,.cls-7,.cls-8{fill:#fff;}.cls-3{fill-opacity:0.2;}.cls-4{fill-opacity:0.1;}.cls-5{fill-opacity:0;}.cls-6{fill-opacity:0.3;}.cls-7{fill-opacity:0.4;}.cls-8{fill-opacity:0.5;}</style></defs><title>polymer</title><g id="Layer_2" data-name="Layer 2"><g id="Layer_1-2" data-name="Layer 1"><rect class="cls-1" width="50" height="50"/><path class="cls-2" d="M10,25,5,33.66l5,8.66,5-8.66Z"/><path class="cls-2" d="M40,7.68l-5,8.66L40,25l5-8.66Z"/><path class="cls-2" d="M45,16.34l-15,26H40L50,25Z"/><path class="cls-2" d="M30,7.68,10,42.32H20L40,7.68Z"/><path class="cls-2" d="M10,7.68,0,25l5,8.66,15-26Z"/><path class="cls-3" d="M30,7.68l5,8.66,5-8.66Z"/><path class="cls-4" d="M25,16.34l5-8.66,5,8.66Z"/><path class="cls-5" d="M25,16.34,30,25l5-8.66Z"/><path class="cls-4" d="M20,25l5-8.66L30,25Z"/><path class="cls-3" d="M20,25l5,8.66L30,25Z"/><path class="cls-6" d="M15,33.66,20,25l5,8.66Z"/><path class="cls-7" d="M15,33.66l5,8.66,5-8.66Z"/><path class="cls-8" d="M10,42.32l5-8.66,5,8.66Z"/><path class="cls-3" d="M10,7.68l5,8.66,5-8.66Z"/><path class="cls-4" d="M5,16.34l5-8.66,5,8.66Z"/><path class="cls-5" d="M5,16.34,10,25l5-8.66Z"/><path class="cls-4" d="M0,25l5-8.66L10,25Z"/><path class="cls-3" d="M0,25l5,8.66L10,25Z"/><path class="cls-5" d="M15,33.66,10,25,5,33.66Z"/><path class="cls-3" d="M15,33.66l-5,8.66L5,33.66ZM45,16.34,40,7.68l-5,8.66Z"/><path class="cls-5" d="M45,16.34,40,25l-5-8.66Z"/><path class="cls-3" d="M40,25l5-8.66L50,25Z"/><path class="cls-4" d="M40,25l5,8.66L50,25Z"/><path class="cls-5" d="M35,33.66,40,25l5,8.66Z"/><path class="cls-4" d="M35,33.66l5,8.66,5-8.66Z"/><path class="cls-3" d="M30,42.32l5-8.66,5,8.66Z"/></g></g></svg>