<?xml version="1.0" encoding="utf-8"?>
<!-- Generator: Adobe Illustrator 21.1.0, SVG Export Plug-In . SVG Version: 6.00 Build 0)  -->
<svg version="1.1"
	 id="Layer_1" xmlns:cc="http://creativecommons.org/ns#" xmlns:dc="http://purl.org/dc/elements/1.1/" xmlns:rdf="http://www.w3.org/1999/02/22-rdf-syntax-ns#"
	 xmlns="http://www.w3.org/2000/svg" xmlns:xlink="http://www.w3.org/1999/xlink" x="0px" y="0px" viewBox="0 0 60 60"
	 style="enable-background:new 0 0 60 60;" xml:space="preserve">
<style type="text/css">
	.st0{fill:url(#SVGID_1_);}
	.st1{fill:#FFFFFF;}
	.st2{fill:url(#SVGID_2_);}
	.st3{fill:url(#SVGID_3_);}
</style>
<g>
	<linearGradient id="SVGID_1_" gradientUnits="userSpaceOnUse" x1="0.5" y1="30" x2="59.5" y2="30">
		<stop  offset="0" style="stop-color:#20B038"/>
		<stop  offset="1" style="stop-color:#60D66A"/>
	</linearGradient>
	<circle class="st0" cx="30" cy="30" r="29.5"/>
	<g>
		<path class="st1" d="M21.4,43.3l0.6,0.3c2.5,1.5,5.3,2.2,8.1,2.2h0c8.8,0,16-7.2,16-16c0-4.3-1.7-8.3-4.7-11.3
			c-3-3-7-4.7-11.3-4.7c-8.8,0-16,7.2-16,16c0,3,0.8,6,2.4,8.5l0.4,0.6l-1.6,5.9L21.4,43.3z M10.7,49.4l2.7-10
			c-1.7-2.9-2.6-6.2-2.6-9.6c0-10.6,8.6-19.2,19.2-19.2c5.1,0,10,2,13.6,5.6c3.6,3.6,5.6,8.5,5.6,13.6c0,10.6-8.6,19.2-19.2,19.2
			c0,0,0,0,0,0h0c-3.2,0-6.4-0.8-9.2-2.3L10.7,49.4z"/>
		
			<linearGradient id="SVGID_2_" gradientUnits="userSpaceOnUse" x1="-278.4166" y1="346.7741" x2="-277.6392" y2="346.7741" gradientTransform="matrix(0 -41.6418 -41.6418 0 14470.2812 -11547.5693)">
			<stop  offset="0" style="stop-color:#20B038"/>
			<stop  offset="1" style="stop-color:#60D66A"/>
		</linearGradient>
		<path class="st2" d="M14,29.9c0,2.8,0.7,5.6,2.1,8l-2.3,8.3l8.5-2.2c2.3,1.3,5,2,7.7,2h0c8.8,0,16-7.2,16-16
			c0-4.3-1.7-8.3-4.7-11.3c-3-3-7.1-4.7-11.4-4.7C21.2,13.8,14,21,14,29.9 M30.1,45.9L30.1,45.9L30.1,45.9
			C30.1,45.9,30.1,45.9,30.1,45.9"/>
		<path class="st1" d="M25.3,21.8C24.9,21,24.5,21,24.2,21c-0.3,0-0.6,0-0.9,0c-0.3,0-0.8,0.1-1.3,0.6c-0.4,0.5-1.7,1.6-1.7,4
			c0,2.4,1.7,4.7,2,5c0.2,0.3,3.3,5.3,8.2,7.3c4.1,1.6,4.9,1.3,5.8,1.2c0.9-0.1,2.8-1.2,3.2-2.3c0.4-1.1,0.4-2.1,0.3-2.3
			c-0.1-0.2-0.4-0.3-0.9-0.6c-0.5-0.2-2.8-1.4-3.3-1.6c-0.4-0.2-0.8-0.2-1.1,0.2c-0.3,0.5-1.2,1.6-1.5,1.9c-0.3,0.3-0.6,0.4-1,0.1
			c-0.5-0.2-2-0.7-3.9-2.4c-1.4-1.3-2.4-2.8-2.7-3.3c-0.3-0.5,0-0.7,0.2-1c0.2-0.2,0.5-0.6,0.7-0.8c0.2-0.3,0.3-0.5,0.5-0.8
			c0.2-0.3,0.1-0.6,0-0.8C26.6,25.1,25.7,22.7,25.3,21.8"/>
		
			<linearGradient id="SVGID_3_" gradientUnits="userSpaceOnUse" x1="-278.2375" y1="347.0012" x2="-277.3375" y2="347.0012" gradientTransform="matrix(0 -43.1345 -43.1345 0 14997.7109 -11952.2109)">
			<stop  offset="0" style="stop-color:#F9F9F9"/>
			<stop  offset="1" style="stop-color:#FFFFFF"/>
		</linearGradient>
		<path class="st3" d="M10.8,29.8c0,3.4,0.9,6.7,2.6,9.6l-2.7,10l10.2-2.7c2.8,1.5,6,2.3,9.2,2.3h0c10.6,0,19.2-8.6,19.2-19.2
			c0-5.1-2-10-5.6-13.6c-3.6-3.6-8.5-5.6-13.6-5.6C19.5,10.6,10.8,19.2,10.8,29.8 M16.9,38.9l-0.4-0.6c-1.6-2.5-2.4-5.5-2.4-8.5
			c0-8.8,7.2-16,16-16c4.3,0,8.3,1.7,11.3,4.7c3,3,4.7,7,4.7,11.3c0,8.8-7.2,16-16,16h0c-2.9,0-5.7-0.8-8.1-2.2l-0.6-0.3l-6.1,1.6
			L16.9,38.9z M30.1,49.1L30.1,49.1L30.1,49.1C30.1,49.1,30.1,49.1,30.1,49.1"/>
	</g>
</g>
</svg>
