<?xml version="1.0" encoding="utf-8"?>
<!-- Generator: Adobe Illustrator 21.1.0, SVG Export Plug-In . SVG Version: 6.00 Build 0)  -->
<svg version="1.1" id="Layer_1" xmlns="http://www.w3.org/2000/svg" xmlns:xlink="http://www.w3.org/1999/xlink" x="0px" y="0px"
	 viewBox="0 0 50 50" style="enable-background:new 0 0 50 50;" xml:space="preserve">
<style type="text/css">
	.st0{fill:#FFFFFF;}
</style>
<title>Layer 1</title>
<g>
	<path id="svg_53" class="st0" d="M22.9,3.9c9-1.4,18-2.7,27-3.9c0,7.9,0,15.8,0,23.7c-9,0-18,0.2-27,0.2
		C22.9,17.2,22.9,10.6,22.9,3.9L22.9,3.9z"/>
	<path id="svg_52" class="st0" d="M0.1,7.1c6.8-1,13.6-1.9,20.4-2.8c0,6.6,0,13.1,0,19.6C13.7,24,6.9,24.1,0.1,24V7.1L0.1,7.1z"/>
	<path id="svg_41" class="st0" d="M0.1,26.1c6.8,0,13.6,0.1,20.4,0.1c0,6.6,0,13.1,0,19.7c-6.8-1-13.6-1.9-20.4-2.8V26.1z"/>
	<path id="svg_40" class="st0" d="M22.9,26.4c9,0,18,0,27.1,0c0,7.9,0,15.8,0,23.6c-9-1.3-18-2.6-27-3.8
		C22.9,39.6,22.9,33,22.9,26.4z"/>
</g>
</svg>
